<?xml version="1.0"?>
<svg width="640" height="480" xmlns="http://www.w3.org/2000/svg" xmlns:svg="http://www.w3.org/2000/svg">
 <!-- Created with SVG-edit - https://github.com/SVG-Edit/svgedit-->

 <g class="layer">
  <title>Layer 1</title>
  <path d="m259.339447,137.972504c-17.05484,14.838928 32.713837,-64.544586 -57.812042,-62.556915c-90.525879,1.987671 -38.971802,77.388397 -55.83905,64.200272l-76.3274,13.055878c18.655556,21.955246 47.547386,97.230179 45.682533,101.032791c-1.864853,3.802643 -3.817123,7.085999 -4.089645,14.581665c-0.643356,18.049957 3.118782,34.886444 14.903183,47.568207c10.525345,11.328247 24.810333,16.133118 38.531723,14.418701c22.914017,1.366669 31.897568,39.840363 36.507065,46.699402c6.22374,-7.33078 17.903519,-46.114227 47.319,-47.583923c17.560699,-2.929932 23.90802,-7.663605 32.150208,-16.41275c11.09201,-11.93927 14.970551,-27.055115 14.643555,-43.850677c-0.134766,-6.972687 3.432129,9.607666 -4.519897,-18.299225c-7.952026,-27.906921 19.034027,-72.410278 37.951263,-94.339844l-69.100494,-18.51358l0,0z" fill="#003f7f" id="svg_3" stroke="#000000" stroke-dasharray="null" stroke-linecap="null" stroke-linejoin="null" stroke-width="3"/>
  <text fill="#bc0032" font-family="Monospace" font-size="39" id="svg_5" stroke="#000000" stroke-dasharray="null" stroke-linecap="null" stroke-linejoin="null" stroke-width="0" text-anchor="middle" transform="matrix(4.19978 0 0 2.2218 -672.066 -323.91)" x="207.646222" xml:space="preserve" y="243.34768">AS</text>
 </g>
</svg>